<svg id="Layer_1" data-name="Layer 1" xmlns="http://www.w3.org/2000/svg" viewBox="0 0 237.77 268.29"><defs><style>.cls-1{fill:#edcc70;}.cls-2{fill:#d3a524;}.cls-3{fill:#634416;}.cls-4{fill:#473111;}.cls-5{fill:#d9efb6;}.cls-6{fill:#97d348;}.cls-7{fill:#b9cc75;}.cls-8{fill:#75a047;}.cls-9{fill:#adbc50;}.cls-10{fill:#97a532;}.cls-11{fill:#9ec46c;}.cls-12{fill:#cce29c;}.cls-13{fill:#d66b36;}.cls-14{fill:#b24a16;}.cls-15{fill:#e5d09c;}.cls-16{fill:#edd9a6;}.cls-17{fill:#474747;}</style></defs><title>logo</title><path class="cls-1" d="M149.56,181.42c32.14-1.14,69.83-1,102,0l.74,1c1.73,2.15,1.8,5.14,1.79,7.9l0,17.29-.58.36c-3.37,5.52-10.9,6.34-17.35,6.57-25.71.92-63.18,1-88.88,1.93h.45c-25.71-.92-63.18-1-88.88-1.93-6.46-.23-14-1-17.35-6.57l-.58-.36,0-17.29c0-2.76.07-5.75,1.8-7.9l-.63.14a809.37,809.37,0,0,1,112.62-1.33" transform="translate(-30.19 -16.46)"/><path class="cls-2" d="M149.56,182.92c16.68-.58,33.37-.81,50.07-.8q12.78,0,25.58.21c7.84.13,16-.25,23.77.55,2,.2,2.24,0,3.08,2.36.65,1.86.5,4.08.5,6,0,4,0,8,0,12,0,3.59.74,3.68-2.52,6.33-2.94,2.39-7,3-10.63,3.33-14.13,1.25-28.57.85-42.75,1.08-16.47.26-32.95.47-49.42,1a1.5,1.5,0,0,0,0,3h.45a1.5,1.5,0,0,0,0-3c-22.19-.77-44.38-.91-66.57-1.34-9.75-.2-21,.91-30.48-1.51-2.88-.74-6.42-2.06-7.88-4.91-.68-1.31-.54-1.52-.39-3.44.5-6.25-2-15.07,1.57-20.59a1.52,1.52,0,0,0-1.7-2.2l-.63.14c-1.62.36-1.3,3.09.4,2.94a812.49,812.49,0,0,1,112.62-1.33c1.93.1,1.92-2.9,0-3A812.49,812.49,0,0,0,42,181.09l.4,2.95.63-.14-1.7-2.2c-3.16,4.9-2,11.77-2,17.3,0,4.6-1,8.22,2.18,11.56,6.79,7.21,19.78,5.63,28.72,5.85,25.81.65,51.63.69,77.43,1.59v-3h-.45v3c16.47-.57,32.95-.78,49.42-1q12.87-.21,25.73-.49c6.85-.16,14,.12,20.75-1,4.14-.71,10.26-2.86,12.2-7,1.16-2.49.22-7.48.23-10.25,0-4,.49-8.27-.26-12.18-.31-1.61-1.16-4.57-2.7-5.57-2.39-1.57-7.74-.64-10.51-.72q-13.89-.36-27.78-.48c-21.58-.21-43.17,0-64.74.72-1.92.07-1.93,3.07,0,3Z" transform="translate(-30.19 -16.46)"/><path class="cls-3" d="M246.12,155.1c-20.19-3.37-40.61-6.75-61.36-6.74l0-.16A958,958,0,0,0,54,155.26c-4.52.55-9.14,1.17-13.16,2.72s-7.41,4.24-7.92,7.42c-2.88,18.23,40.31,16,48.84,16,21.55.06,38.57-3.83,60.08-2.46,13.6.87,27.19,2,40.81,2.52,22.6.87,45.09-.68,67.65-1.4,6.73-.22,12.28-1.38,15.13-8.11C270.7,159.46,255.11,156.6,246.12,155.1Z" transform="translate(-30.19 -16.46)"/><path class="cls-4" d="M246.52,153.65c-20.46-3.41-41-6.7-61.76-6.79l1.44,1.9,0-.16a1.52,1.52,0,0,0-1.44-1.9,966.4,966.4,0,0,0-118.22,5.59c-9.29,1-35,.49-35.29,14.6-.13,7.52,7.24,11.29,13.49,13.13,8.89,2.6,18.49,2.93,27.69,3,12.57.06,25.07-.61,37.59-1.66,18.88-1.57,37.2-.44,56.06.76a577.76,577.76,0,0,0,60.31.41c9.59-.38,19.93.29,29.37-1.45a14.27,14.27,0,0,0,11.7-10.49c3.39-12.33-12.24-15.45-21-16.92-1.89-.32-2.7,2.57-.8,2.89,4.64.78,9.51,1.56,13.75,3.69,6.16,3.08,7.26,10,2.06,15-4.9,4.71-14,3.47-20.19,3.71-8.62.34-17.23.74-25.85,1-16.82.53-33.56.22-50.35-.87-16.39-1.06-32.52-2.4-48.95-1.19-19.88,1.47-40.27,3.62-60.2,1.28-6.51-.77-17.28-2-20.82-8.5-7.77-14.29,29.34-15.14,36.24-15.86a966.88,966.88,0,0,1,113.38-5.07l-1.45-1.9,0,.16a1.52,1.52,0,0,0,1.45,1.9c20.53.09,40.76,3.32,61,6.68C247.61,156.86,248.42,154,246.52,153.65Z" transform="translate(-30.19 -16.46)"/><path class="cls-5" d="M60.16,226.27A36.26,36.26,0,0,0,77,224.33c3.21-1.18,6.39-2.84,9.8-2.72l1-.51a37.84,37.84,0,0,0,14.94-.94c2.71-.74,5.46-1.78,8.25-1.44,2.41.29,4.56,1.59,6.86,2.35,6.37,2.09,13.23,0,19.85-1.12s14.53-.58,18.4,4.89l-1.81-.33a24.37,24.37,0,0,0,19,7.13c2.43-.18,5.37-.53,6.82,1.42a11.48,11.48,0,0,1,1.17,3.07c1.59,4.38,6.88,6.05,11.51,6.49s9.71.35,13.37,3.23a1.45,1.45,0,0,1,.66,1,1.5,1.5,0,0,1-.58,1,23.56,23.56,0,0,1-17.76,6.5,8.58,8.58,0,0,0-3.68.2,7.1,7.1,0,0,0-2.41,1.92c-4.9,5.23-9.82,10.58-16,14.28s-13.78,5.55-20.55,3.22c-3.7-1.27-6.89-3.68-10.46-5.28-7-3.1-15-2.91-22.5-1.64S98,270.63,90.47,271.55a6.22,6.22,0,0,1-3.48-.29c-2.7-1.33-2.23-5.2-2.34-8.22-.26-6.9-5.78-12.62-12-15.68s-13.14-4.15-19.74-6.2a2.65,2.65,0,0,1-2.06-4.24,22.2,22.2,0,0,1,4.68-7.75c2.18-2.12,5.35-3.44,8.3-2.71" transform="translate(-30.19 -16.46)"/><path class="cls-6" d="M60.16,227.77a40.18,40.18,0,0,0,12.33-.57c4-.84,7.49-2.92,11.4-3.75s7.42-.32,11.41-.57,7.38-1.36,11.1-2.2c5.08-1.15,8.14,1.28,12.79,2.3,3.84.85,7.79.4,11.62-.24,8.06-1.34,18.21-4.33,24.22,3.16l1.46-2.5-1.81-.34a1.51,1.51,0,0,0-1.46,2.51A26.53,26.53,0,0,0,171,233.19c3.18.07,4.16-.73,6.78,1.57,1.94,1.71,1.94,2.4,3.36,4.25a12.63,12.63,0,0,0,6.1,4c3.31,1.13,6.78,1.09,10.22,1.48,1.74.2,6.48.57,6.59,2.55s-5.57,4.2-7.17,4.73c-3.72,1.23-7.21.58-10.94,1-3.36.4-5.33,3.36-7.5,5.65-6.64,7-14.43,14.21-24.54,15-9.47.75-16.54-6.94-25.68-8.3-8.47-1.26-16.86.55-25.08,2.41-3.61.82-11.86,4-15.13,2.05-2.9-1.72-1.6-7.35-2.58-10.55-2.21-7.2-8.8-11.94-15.53-14.54-4.77-1.84-10.33-2.21-14.93-4.32-3.29-1.51-2.73-3.63-.87-6.67,2.19-3.59,5.19-6.19,9.73-5.58,1.91.25,1.89-2.75,0-3-6.39-.86-10.81,3.72-13.36,9.11-2.11,4.46-2,7.23,2.87,8.78,8.3,2.63,17.81,3.54,24.42,9.8a16.25,16.25,0,0,1,5.38,11.56c.11,2.09-.12,4.51,1,6.39,2.94,4.75,11,1.79,15.1.91,9.46-2,19.24-5,29-3.34,7.52,1.31,13.2,7.05,20.72,8.12,7.16,1,14.35-1.54,20.2-5.57a64.29,64.29,0,0,0,9-7.76c1.54-1.54,2.91-3.41,4.58-4.79,2.57-2.14,4.76-2.16,7.85-2.26,5.94-.19,14.28-2.81,17.39-8.32a1.49,1.49,0,0,0,0-1.51c-2.32-3.42-6.75-4.15-10.61-4.57-3-.32-5.94-.3-8.8-1.19-3.87-1.19-5-3.07-6.61-6.54-1.79-3.92-5-3.78-8.81-3.64a23.83,23.83,0,0,1-17.93-6.69l-1.46,2.5,1.82.34a1.52,1.52,0,0,0,1.46-2.51c-4.23-5.26-11.06-6.27-17.45-5.6-4.66.49-9.18,1.84-13.86,2.19-5.54.4-9.31-2.36-14.47-3.1-3.75-.54-7.29,1.13-10.88,1.89-4.57,1-9,.15-13.47.64-3.87.43-7.51,2.11-11.21,3.36a36.93,36.93,0,0,1-15.66,1.61c-1.92-.19-1.91,2.81,0,3Z" transform="translate(-30.19 -16.46)"/><path class="cls-6" d="M166,243.43c-5.76.72-9.58,5.2-14.46,7.92a37.92,37.92,0,0,1-24.27,4.19c-.48-.08-.68.65-.2.72a39,39,0,0,0,18.79-1.55,37.67,37.67,0,0,0,8.17-4c3.93-2.54,7-5.94,12-6.55.47-.06.47-.81,0-.75Z" transform="translate(-30.19 -16.46)"/><path class="cls-6" d="M78.1,236.85c10.57-2,10.41,10.38,17.26,14.13,3.91,2.14,8.51.72,11.74-1.92.37-.3-.16-.83-.53-.53a10.77,10.77,0,0,1-7.38,2.71c-4.36-.29-5.49-2.52-7.37-5.44a40.85,40.85,0,0,0-4.2-6.08c-2.61-2.82-5.88-4.32-9.72-3.59-.48.09-.28.81.2.72Z" transform="translate(-30.19 -16.46)"/><path class="cls-5" d="M190.85,229.3a25.36,25.36,0,0,0,16.83-1.59,47.92,47.92,0,0,1,5.73-2.66c7.3-2.3,15.16,2.48,22.71,1.23,3.58-.59,6.79-2.5,10-4.22s6.65-3.33,10.28-3.24,7.45,2.42,8.08,6c.66,3.75-2.39,7.3-5.9,8.78s-7.43,1.47-11.22,1.94a4.54,4.54,0,0,0-3,1.24,4.81,4.81,0,0,0-.74,3.18l0,6.35c0,3.31-.61,7.51-3.82,8.34-2.08.54-4.22-.79-5.65-2.4s-2.51-3.56-4.2-4.91c-4.68-3.74-12.46-1.67-16.67-5.93a23.38,23.38,0,0,0-2.74-3c-1.78-1.25-4.15-1.06-6.33-1A32.52,32.52,0,0,1,193,235.58a7,7,0,0,1-3.64-2.36c-.82-1.23-.71-3.17.58-3.89" transform="translate(-30.19 -16.46)"/><path class="cls-6" d="M190.46,230.75c6.93,1.5,13,.48,19.39-2.45,5.3-2.43,8.83-2.59,14.42-1.58,3.38.6,6.76,1.45,10.23,1.24,7.2-.44,12.34-6.1,19.22-7.39,2.62-.5,5.88-.28,7.81,1.87,3.74,4.15-.1,8.13-3.66,9.74s-7.66,1.14-11.48,2c-5.29,1.2-4.3,6.15-4.3,10.53,0,1.8.47,5.74-1,7.05l-4.22.88a13.21,13.21,0,0,1-3.47-3.71,13.48,13.48,0,0,0-5.27-4.33c-2.84-1.22-6-1.23-8.92-2-4-1-4.78-3.44-7.95-5.5-2.15-1.4-4.64-1.2-7.09-1.23a35.72,35.72,0,0,1-6.1-.52c-.92-.17-10-2.22-7.13-5,1.37-1.36-.75-3.48-2.13-2.12-3.33,3.3-.49,7,3,8.48a30.63,30.63,0,0,0,9.87,2.11c1.66.1,3.48-.23,5.11,0,3.05.52,4.12,2.71,6.3,4.38,5.54,4.22,12.86,1.72,17.77,7.34,2.68,3.06,6.5,7.83,11,4.62,5.62-4,.93-11.93,3.91-16.68,1.67-2.66,7.64-1.94,10.82-2.77a13.45,13.45,0,0,0,7.49-4.67,8.1,8.1,0,0,0-1.68-11.79c-4.88-3.5-10.83-1.73-15.73.69-4.54,2.25-8.6,5-13.87,4.95-4.42,0-8.69-1.63-13.09-2a19.54,19.54,0,0,0-10.73,2.35c-5.77,2.85-11.45,3.88-17.8,2.51-1.88-.41-2.68,2.48-.79,2.89Z" transform="translate(-30.19 -16.46)"/><path class="cls-5" d="M193.08,263.48c-2.38-.82-4.89,1-6.31,3.07s-2.31,4.57-4.18,6.26c-1.67,1.51-3.9,2.2-5.85,3.32s-3.78,3.07-3.55,5.31a2.09,2.09,0,0,0,1.07,1.73,2.7,2.7,0,0,0,1.85-.12c4.86-1.59,9.4-4.4,14.48-4.88,5.44-.51,11.71,1.51,15.92-2,1.35-1.12,2.27-2.68,3.62-3.8,3.65-3,9-1.86,13.68-1.15s10.64.09,12.37-4.31a1.76,1.76,0,0,0,.1-1.29,1.9,1.9,0,0,0-1.16-.9c-3.93-1.48-9.38-1-11.14-4.83a3.46,3.46,0,0,0-.78-1.34,2.53,2.53,0,0,0-1.86-.32,283.59,283.59,0,0,0-29,4" transform="translate(-30.19 -16.46)"/><path class="cls-6" d="M193.48,262c-7.89-1.08-9.17,8.49-15.08,11.58-2.78,1.45-10.58,7.05-5.2,10.61,2,1.32,4.58-.17,6.51-.94,4.69-1.86,8.76-3.7,13.92-3.69,3.58,0,7.33.7,10.8-.56s4.59-4.44,7.6-6.13c6.23-3.5,14.23,1.9,20.94-1,3.22-1.38,7.18-6,2.91-8.48-3.66-2.12-7.57-.69-10.61-4.29-1.45-1.72-1.43-2.24-3.93-2.41-4.45-.32-9.59.94-14,1.53-5.16.7-10.3,1.54-15.43,2.49-1.89.35-1.09,3.24.8,2.89,7.55-1.4,15.15-2.55,22.79-3.36,2.55-.27,5.38-1.17,7.18.37,1.12,1,1.58,2.19,3,3,1.84,1,4,1.05,5.91,1.7.82.27,2.93.41,2.79,1.84-.16,1.74-4.46,2.6-5.65,2.72-4.61.5-9.11-1.38-13.73-.9-5.29.56-6.28,4.36-10.43,6.7-4.76,2.7-11.59.25-16.85,1.45a59.62,59.62,0,0,0-8.78,3.24c-.59.23-2.62,1.39-3.21,1.2-4.09-1.35,3.66-5.11,4.21-5.39a14.74,14.74,0,0,0,4.75-3.44c2.24-2.61,3.42-8.47,8-7.84,1.89.26,2.71-2.63.8-2.89Z" transform="translate(-30.19 -16.46)"/><path class="cls-7" d="M114.42,154.15c-4.79,10.32-11.92,19.35-17.64,29.19s-10.1,21.11-8.54,32.38a32.76,32.76,0,0,0,42.15,26.83c11.48-3.55,20.16-13.14,26.14-23.56s9.83-21.92,15.29-32.62a120.13,120.13,0,0,1,23.72-32" transform="translate(-30.19 -16.46)"/><path class="cls-8" d="M113.12,153.39c-7.55,15.76-20.31,29-25,46.06-3.85,13.94-.49,28.92,10.94,38.3a34.76,34.76,0,0,0,38.28,3.49c13.32-7.19,21-21.06,26.91-34.4,4.11-9.24,7.86-18.62,13.12-27.31a122.1,122.1,0,0,1,19.26-24.06c1.38-1.35-.74-3.47-2.12-2.12A124.38,124.38,0,0,0,169.32,188c-6.52,13.44-11,28.22-20.74,39.85-9.5,11.36-24.09,18.09-38.71,12.66C94.07,234.69,86.8,217.91,90.53,202c4.14-17.62,17.52-31.08,25.18-47.08.83-1.73-1.75-3.26-2.59-1.52Z" transform="translate(-30.19 -16.46)"/><path class="cls-9" d="M126.52,156.67a161.19,161.19,0,0,0-20.8,42c-2.13,6.57-3.75,14.13-.27,20.09,3.82,6.54,12.39,8.63,20,8.25a20.29,20.29,0,0,0,8.67-2c3.81-2,6.32-5.84,8.45-9.61,10.62-18.82,15.55-40.76,28.45-58.09" transform="translate(-30.19 -16.46)"/><path class="cls-10" d="M125.87,156.29c-10.51,15.35-42.63,67.86-5.22,71.33,6.16.57,12.76-.21,17.36-4.7,5.18-5.06,8.19-12.64,11.09-19.11,7-15.66,12.32-32.17,22.52-46.18.57-.79-.73-1.54-1.3-.76-7.9,10.87-12.93,23.27-18,35.61S141.7,225,126.15,226.17c-6.44.49-14.16-.71-18.63-5.84-5.67-6.51-3-15.89-.53-23.14a163,163,0,0,1,20.17-40.14c.55-.8-.75-1.55-1.29-.76Z" transform="translate(-30.19 -16.46)"/><path class="cls-11" d="M118.33,201.66a4.64,4.64,0,0,0,2.23,5.26,1,1,0,0,0,.87.14.94.94,0,0,0,.45-.51,3,3,0,0,0-.75-3.2,8.91,8.91,0,0,0-3-1.81" transform="translate(-30.19 -16.46)"/><path class="cls-12" d="M118,201.56a5.1,5.1,0,0,0,.58,4c.52.83,1.89,2.36,3,1.88s1-2.23.6-3.13c-.68-1.6-2.31-2.39-3.81-3.06-.44-.19-.82.45-.38.65a9.57,9.57,0,0,1,2.63,1.51c.54.5,2.18,3.46.14,3.23-.76-.09-1.55-1.37-1.83-2a4.27,4.27,0,0,1-.22-2.86.38.38,0,0,0-.73-.2Z" transform="translate(-30.19 -16.46)"/><path class="cls-11" d="M118.33,188.8a4.64,4.64,0,0,0,2.23,5.26,1.09,1.09,0,0,0,.87.14.94.94,0,0,0,.45-.51,3,3,0,0,0-.75-3.2,9.1,9.1,0,0,0-3-1.82" transform="translate(-30.19 -16.46)"/><path class="cls-12" d="M118,188.7a5.1,5.1,0,0,0,.58,4c.52.83,1.89,2.36,3,1.88s1-2.23.6-3.13c-.68-1.6-2.31-2.39-3.81-3.06-.44-.19-.82.45-.38.65a9.57,9.57,0,0,1,2.63,1.51c.54.5,2.18,3.46.14,3.23-.76-.09-1.55-1.37-1.83-2a4.27,4.27,0,0,1-.22-2.86.38.38,0,0,0-.73-.2Z" transform="translate(-30.19 -16.46)"/><path class="cls-11" d="M129.63,200a4.65,4.65,0,0,0-1.36,5.55,1.1,1.1,0,0,0,.62.63,1,1,0,0,0,.66-.14,3,3,0,0,0,1.31-3,8.73,8.73,0,0,0-1.29-3.22" transform="translate(-30.19 -16.46)"/><path class="cls-12" d="M129.37,199.68a5,5,0,0,0-1.88,3.83c0,.92.2,2.7,1.3,3s2.06-1.11,2.33-2c.5-1.74-.4-3.43-1.22-4.91a.38.38,0,0,0-.65.38,9.28,9.28,0,0,1,1.18,2.7,3.45,3.45,0,0,1,0,1.63c-.23.8-1.21,1.93-1.89.77-.92-1.57.17-3.82,1.4-4.83.37-.3-.16-.83-.53-.53Z" transform="translate(-30.19 -16.46)"/><path class="cls-11" d="M128.57,210.6a4.63,4.63,0,0,0,.55,5.69,1,1,0,0,0,.78.39,1,1,0,0,0,.59-.35,3,3,0,0,0,.23-3.28,8.77,8.77,0,0,0-2.28-2.62" transform="translate(-30.19 -16.46)"/><path class="cls-12" d="M128.24,210.41a5.08,5.08,0,0,0-.53,4.23c.28.89,1.11,2.53,2.24,2.41,1.29-.14,1.62-2,1.47-3-.24-1.66-1.52-2.84-2.71-3.89-.36-.32-.89.21-.53.53a9.28,9.28,0,0,1,2,2.2c.48.86,1,2.84-.34,3-.72.11-.91-.32-1.23-1a4.37,4.37,0,0,1-.41-1.45,4.31,4.31,0,0,1,.65-2.75c.25-.41-.39-.79-.65-.38Z" transform="translate(-30.19 -16.46)"/><path class="cls-11" d="M123,183a4.65,4.65,0,0,0,2.23,5.27,1.08,1.08,0,0,0,.87.13,1,1,0,0,0,.45-.5,3,3,0,0,0-.76-3.21,8.87,8.87,0,0,0-3-1.81" transform="translate(-30.19 -16.46)"/><path class="cls-12" d="M122.65,182.85a5.1,5.1,0,0,0,.58,4c.51.83,1.88,2.37,3,1.88s1-2.23.6-3.12c-.68-1.61-2.31-2.39-3.82-3.07-.43-.19-.82.46-.38.65a9.48,9.48,0,0,1,2.64,1.51c.54.5,2.18,3.46.14,3.23-.76-.08-1.55-1.36-1.83-2a4.27,4.27,0,0,1-.23-2.86.37.37,0,0,0-.72-.2Z" transform="translate(-30.19 -16.46)"/><path class="cls-11" d="M134.7,170.09a4.63,4.63,0,0,0,2.23,5.26,1,1,0,0,0,.87.14,1,1,0,0,0,.45-.5,3,3,0,0,0-.76-3.21,8.72,8.72,0,0,0-3-1.81" transform="translate(-30.19 -16.46)"/><path class="cls-12" d="M134.34,170a5.1,5.1,0,0,0,.58,4c.52.83,1.89,2.36,3,1.88s1-2.23.6-3.12c-.68-1.61-2.31-2.39-3.82-3.07-.43-.19-.81.45-.37.65A9.57,9.57,0,0,1,137,171.8c.54.5,2.18,3.46.14,3.23-.76-.09-1.55-1.36-1.83-2a4.33,4.33,0,0,1-.23-2.86.37.37,0,0,0-.72-.2Z" transform="translate(-30.19 -16.46)"/><path class="cls-11" d="M142.5,183.58a4.62,4.62,0,0,0-1.36,5.55,1.08,1.08,0,0,0,.61.63.88.88,0,0,0,.66-.14,3,3,0,0,0,1.31-3,8.84,8.84,0,0,0-1.28-3.22" transform="translate(-30.19 -16.46)"/><path class="cls-12" d="M142.23,183.31a5.1,5.1,0,0,0-1.88,3.83c0,.92.2,2.7,1.3,3s2.06-1.11,2.33-2c.5-1.74-.4-3.43-1.22-4.91-.24-.42-.88,0-.65.38a9.28,9.28,0,0,1,1.18,2.7,3.37,3.37,0,0,1,0,1.64c-.22.79-1.21,1.92-1.89.76-.92-1.57.17-3.82,1.4-4.82.37-.31-.16-.84-.53-.54Z" transform="translate(-30.19 -16.46)"/><path class="cls-11" d="M134.41,191.89a4.65,4.65,0,0,0,.55,5.69,1.08,1.08,0,0,0,.79.39.89.89,0,0,0,.58-.35,3,3,0,0,0,.24-3.28,8.91,8.91,0,0,0-2.28-2.62" transform="translate(-30.19 -16.46)"/><path class="cls-12" d="M134.09,191.7a5.14,5.14,0,0,0-.54,4.24c.28.88,1.11,2.52,2.25,2.4s1.61-2,1.47-3c-.25-1.66-1.52-2.84-2.71-3.89-.36-.32-.9.21-.53.53a9.24,9.24,0,0,1,2,2.2c.49.86,1,2.84-.34,3.05-.72.11-.91-.32-1.22-1a4.1,4.1,0,0,1-.42-1.45,4.31,4.31,0,0,1,.66-2.75c.25-.41-.4-.79-.65-.38Z" transform="translate(-30.19 -16.46)"/><path class="cls-11" d="M125.88,170.18a4.63,4.63,0,0,0,.36,5.7,1.07,1.07,0,0,0,.77.42,1,1,0,0,0,.59-.33,3,3,0,0,0,.35-3.27,8.86,8.86,0,0,0-2.18-2.7" transform="translate(-30.19 -16.46)"/><path class="cls-12" d="M125.56,170a5.06,5.06,0,0,0-.67,4.21c.25.89,1,2.56,2.17,2.46,1.29-.1,1.67-1.95,1.56-2.95-.2-1.66-1.44-2.88-2.59-4-.35-.34-.88.19-.53.53a9.24,9.24,0,0,1,2,2.27c.44.82.89,3.22-.54,3.12-1-.07-1.41-1.7-1.47-2.57a4.28,4.28,0,0,1,.76-2.73c.26-.4-.39-.78-.65-.37Z" transform="translate(-30.19 -16.46)"/><path class="cls-11" d="M137.87,160.76a4.65,4.65,0,0,0,.36,5.71,1,1,0,0,0,.77.41,1,1,0,0,0,.6-.32,3.06,3.06,0,0,0,.35-3.28,9.13,9.13,0,0,0-2.19-2.69" transform="translate(-30.19 -16.46)"/><path class="cls-12" d="M137.55,160.57a5.12,5.12,0,0,0-.67,4.22c.25.89,1,2.56,2.17,2.46s1.67-1.95,1.56-2.95c-.19-1.66-1.44-2.88-2.59-4-.35-.33-.88.2-.53.53a9.48,9.48,0,0,1,2,2.28c.44.82.89,3.22-.54,3.12-1-.07-1.41-1.7-1.47-2.57a4.41,4.41,0,0,1,.76-2.73c.27-.4-.38-.78-.65-.38Z" transform="translate(-30.19 -16.46)"/><path class="cls-11" d="M147.17,173.86a4.65,4.65,0,0,0-3.13,4.79,1.06,1.06,0,0,0,.37.79,1,1,0,0,0,.67.1,3,3,0,0,0,2.24-2.42,8.85,8.85,0,0,0-.14-3.47" transform="translate(-30.19 -16.46)"/><path class="cls-12" d="M147.07,173.5a5.1,5.1,0,0,0-3,2.74c-.39.88-.87,2.8.11,3.5s2.33-.35,2.88-1.12c1.05-1.49.77-3.37.48-5.07-.08-.47-.81-.27-.72.2a7.61,7.61,0,0,1,.06,3.58c-.26.79-1.94,2.84-2.45,1.26-.59-1.8,1.33-3.83,2.84-4.37.45-.16.25-.88-.2-.72Z" transform="translate(-30.19 -16.46)"/><path class="cls-11" d="M134.45,180.19a4.64,4.64,0,0,0-1.38,5.55,1.1,1.1,0,0,0,.62.63,1,1,0,0,0,.66-.14,3,3,0,0,0,1.32-3,9.21,9.21,0,0,0-1.28-3.22" transform="translate(-30.19 -16.46)"/><path class="cls-12" d="M134.18,179.92a5.05,5.05,0,0,0-1.89,3.82c0,.92.2,2.7,1.3,3s2.06-1.11,2.33-2c.5-1.75-.39-3.44-1.21-4.92-.23-.42-.88,0-.65.38a9.22,9.22,0,0,1,1.18,2.71,3.46,3.46,0,0,1-.05,1.63c-.23.79-1.22,1.92-1.89.75-.92-1.57.18-3.81,1.41-4.82.38-.3-.16-.83-.53-.53Z" transform="translate(-30.19 -16.46)"/><path class="cls-3" d="M254.72,114c5.49,4.62,11.5,10.44,10.8,17.58-.44,4.57-3.72,8.47-7.64,10.85S249.41,145.9,245,147c-20.19,4.83-40.6,9.69-61.36,9.67l0,.23a670.62,670.62,0,0,1-130.8-10.13c-4.52-.8-9.13-1.68-13.15-3.91s-7.42-6.08-7.93-10.65c-.6-5.46,2.89-10.45,6.28-14.77" transform="translate(-30.19 -16.46)"/><path class="cls-4" d="M253.66,115.06c6.58,5.62,14.75,14.27,7.41,22.78-5.47,6.35-15.46,7.45-23.15,9.26-17.87,4.22-35.89,7.93-54.33,8a1.53,1.53,0,0,0-1.45,1.9l0,.23,1.45-1.9a676.66,676.66,0,0,1-85.17-3.66q-21.75-2.33-43.3-6.07c-6.56-1.15-14-2.15-18.8-7.27-6.16-6.59-1.6-14.29,3-20.2,1.18-1.52-1.42-3-2.59-1.51-3.5,4.54-7.23,9.85-6.42,15.91.66,5,4.3,9.14,8.61,11.55,6.36,3.56,14.19,4.23,21.25,5.39q11.32,1.88,22.71,3.35a677.26,677.26,0,0,0,100.75,5.51,1.52,1.52,0,0,0,1.44-1.9l0-.23-1.44,1.9a189.14,189.14,0,0,0,33.21-3.42c11.46-2.11,23.24-4.41,34.39-7.84,6.93-2.12,14.33-6.45,15.67-14.22,1.44-8.32-5.34-14.83-11.08-19.72-1.46-1.25-3.59.86-2.12,2.12Z" transform="translate(-30.19 -16.46)"/><path class="cls-13" d="M86.76,124.83c10.81,9.69,26.74,10.28,41.25,10.36l50.11.27c17.43.09,36.9-.62,49.12-13.05" transform="translate(-30.19 -16.46)"/><path class="cls-14" d="M85.7,125.89c8.81,7.51,20,9.83,31.26,10.51,14.23.85,28.6.39,42.85.46,22.39.12,50.92,3.73,68.49-13.39,1.39-1.35-.74-3.47-2.12-2.12-16.84,16.4-44.92,12.63-66.37,12.51-12.69-.07-25.4.09-38.08-.26-12-.33-24.48-1.79-33.91-9.83-1.46-1.25-3.59.87-2.12,2.12Z" transform="translate(-30.19 -16.46)"/><path class="cls-1" d="M37,114.62c14.72,6.59,31.27,7.45,47.38,8q57.79,1.92,115.63-.12c21.62-.77,37.66-3.61,58.32-10l-.24-.54C252,73.59,228.24,36,191.58,23.33c-14.19-4.9-29.48-5.87-44.45-4.83C120.85,20.32,94.58,28.55,73.8,44.75s-35.55,40.84-37,67.15" transform="translate(-30.19 -16.46)"/><path class="cls-2" d="M36.21,115.92c16.52,7.12,34.41,7.77,52.13,8.31q29.89.92,59.81.78c19.72-.09,39.55-.16,59.24-1.39a220.88,220.88,0,0,0,51.31-9.73,1.53,1.53,0,0,0,.89-2.21c-1.65-3.74-1.74-9-2.8-13.05a133.89,133.89,0,0,0-5.08-15.35,124,124,0,0,0-14.13-26C226.48,41.7,211.4,29,193.35,22.37c-22.07-8.06-47.33-7-70-1.94-21.75,4.89-42.72,14.78-58.85,30.39C47.88,67,36.82,88.61,35.34,111.9c-.12,1.92,2.88,1.92,3,0,2.83-44.57,39.85-76.65,80.93-87.39,21.92-5.73,46.58-7.38,68.48-.83,18.86,5.63,34.81,18.17,46.39,33.9a120.86,120.86,0,0,1,15.21,27.87,129.43,129.43,0,0,1,4.91,15.4c1,3.93,1.12,8.67,2.74,12.35l.9-2.21a216.8,216.8,0,0,1-50.51,9.63c-19,1.19-38.19,1.27-57.25,1.38q-28.9.16-57.81-.65c-18.39-.52-37.42-.61-54.6-8-1.76-.75-3.29,1.83-1.52,2.6Z" transform="translate(-30.19 -16.46)"/><path class="cls-15" d="M157.28,49.88a12.88,12.88,0,0,0,6.18,14.6,2.94,2.94,0,0,0,2.41.38,2.61,2.61,0,0,0,1.25-1.4c1.35-2.94.12-6.54-2.1-8.89s-5.25-3.72-8.2-5" transform="translate(-30.19 -16.46)"/><path class="cls-16" d="M156.56,49.68a13.78,13.78,0,0,0,1.58,10.76c1.35,2.17,5,6.36,8,5.1s2.48-6,1.5-8.29c-1.87-4.39-6.36-6.53-10.47-8.36-.87-.39-1.63.9-.75,1.3a26.17,26.17,0,0,1,7.36,4.23,9.64,9.64,0,0,1,2.76,4.15c.61,1.92.95,5.82-2.72,5.26-2.18-.33-4.36-3.79-5.17-5.59a12.2,12.2,0,0,1-.67-8.16.75.75,0,0,0-1.44-.4Z" transform="translate(-30.19 -16.46)"/><path class="cls-15" d="M106.83,44.75A12.85,12.85,0,0,0,96.81,57a2.92,2.92,0,0,0,.78,2.31,2.59,2.59,0,0,0,1.83.45c3.22-.18,5.84-2.94,6.88-6s.83-6.39.62-9.61" transform="translate(-30.19 -16.46)"/><path class="cls-16" d="M106.63,44a13.75,13.75,0,0,0-9,6.89c-1.16,2.16-2.86,7-.57,8.95,2.45,2.11,6.46-.52,8-2.44,3.07-3.71,2.85-8.74,2.56-13.25-.07-1-1.57-1-1.5,0,.2,3.11.48,6.42-.6,9.41-.87,2.42-6.39,8.85-8,3.44-.6-2,1.14-5.24,2.27-6.81a12.22,12.22,0,0,1,7.2-4.74c.94-.23.54-1.68-.4-1.45Z" transform="translate(-30.19 -16.46)"/><path class="cls-15" d="M175.51,32.6a12.87,12.87,0,0,0,9.55,12.66,2.9,2.9,0,0,0,2.42-.21,2.64,2.64,0,0,0,.88-1.67c.59-3.18-1.47-6.37-4.2-8.11s-6-2.33-9.18-2.89" transform="translate(-30.19 -16.46)"/><path class="cls-16" d="M174.76,32.6a13.79,13.79,0,0,0,4,9.91c1.83,1.83,6.51,5.12,9.15,3.12s.86-6.64-.76-8.65c-2.92-3.62-7.66-4.56-12-5.32-1-.17-1.35,1.28-.4,1.44,2.78.49,5.76,1,8.25,2.37a9.53,9.53,0,0,1,3.61,3.35c.92,1.56,2.42,5.73-1.38,5.72-2.33,0-5-2.47-6.32-4.14a12.11,12.11,0,0,1-2.68-7.8.75.75,0,0,0-1.5,0Z" transform="translate(-30.19 -16.46)"/><path class="cls-15" d="M134.24,31A12.87,12.87,0,0,0,123.41,42.6,2.92,2.92,0,0,0,124,45a2.59,2.59,0,0,0,1.79.58c3.23,0,6-2.55,7.27-5.53s1.26-6.31,1.26-9.54" transform="translate(-30.19 -16.46)"/><path class="cls-16" d="M134,30.3a13.7,13.7,0,0,0-9.13,5.86c-1.42,2.09-3.72,7.09-1.4,9.32s6.47-.13,8.2-2C135,40,135.1,35,135.11,30.46a.75.75,0,0,0-1.5,0c0,3.33.06,6.93-1.53,10-1.26,2.4-7.92,7.63-7.82,1.47.08-5.22,5.49-9.36,10.18-10.14.95-.16.54-1.61-.4-1.45Z" transform="translate(-30.19 -16.46)"/><path class="cls-15" d="M181.83,58.07A12.85,12.85,0,0,0,188,72.66a2.88,2.88,0,0,0,2.4.38,2.56,2.56,0,0,0,1.26-1.4c1.34-2.94.12-6.54-2.1-8.89s-5.26-3.71-8.21-5" transform="translate(-30.19 -16.46)"/><path class="cls-16" d="M181.11,57.87a13.81,13.81,0,0,0,1.59,10.75c1.34,2.17,5,6.37,8,5.11s2.48-6,1.5-8.3c-1.86-4.39-6.36-6.52-10.46-8.35-.88-.39-1.64.9-.76,1.29,2.57,1.15,5.27,2.3,7.37,4.24a9.79,9.79,0,0,1,2.76,4.14c.6,1.92.94,5.82-2.72,5.27-2.18-.33-4.36-3.8-5.18-5.59a12.14,12.14,0,0,1-.66-8.16.75.75,0,0,0-1.45-.4Z" transform="translate(-30.19 -16.46)"/><path class="cls-15" d="M126,60.36A12.85,12.85,0,0,0,119,74.63a3,3,0,0,0,1.29,2.06,2.67,2.67,0,0,0,1.89,0c3.09-.93,5-4.22,5.3-7.44s-.66-6.4-1.62-9.49" transform="translate(-30.19 -16.46)"/><path class="cls-16" d="M125.57,59.71a13.81,13.81,0,0,0-7.07,8.49c-.67,2.33-1.34,7.72,1.46,9.13s6.16-2,7.26-4.26c2.11-4.32.73-9.16-.6-13.49-.28-.92-1.73-.52-1.44.4,1,3.18,2.1,6.61,1.5,10-.38,2.11-4.49,9.47-6.92,4.48-1.11-2.29.06-6.13,1.12-8.15A12.29,12.29,0,0,1,126.33,61c.86-.44.1-1.74-.76-1.3Z" transform="translate(-30.19 -16.46)"/><path class="cls-17" d="M90.9,77.65,131.45,92.6c3.63,1.34,5.2-4.45,1.6-5.78l-6.65-2.45c-3.63-1.34-5.19,4.46-1.59,5.78l6.64,2.45,1.6-5.78L92.5,71.87c-3.63-1.34-5.2,4.45-1.6,5.78Z" transform="translate(-30.19 -16.46)"/><path class="cls-17" d="M92.5,109l40.55-15-1.6-5.79-6.64,2.46c-3.6,1.32-2,7.12,1.59,5.78L133.05,94c3.59-1.32,2-7.13-1.6-5.79l-40.55,15c-3.59,1.32-2,7.12,1.6,5.78Z" transform="translate(-30.19 -16.46)"/><path class="cls-17" d="M199.27,73,158.72,88l1.59,5.78L167,91.32c3.59-1.32,2-7.12-1.6-5.78L158.72,88c-3.6,1.32-2,7.12,1.59,5.78l40.55-15c3.6-1.32,2-7.13-1.59-5.79Z" transform="translate(-30.19 -16.46)"/><path class="cls-17" d="M200.86,104.36l-40.55-15c-3.63-1.33-5.19,4.46-1.59,5.79l6.64,2.45c3.63,1.34,5.2-4.46,1.6-5.78l-6.65-2.46-1.59,5.79,40.55,15c3.63,1.34,5.19-4.46,1.59-5.78Z" transform="translate(-30.19 -16.46)"/><path class="cls-2" d="M109.23,116.8a25.44,25.44,0,0,0,22.36-9.62c1.19-1.5-.92-3.64-2.12-2.13a22.69,22.69,0,0,1-20.24,8.75c-1.92-.17-1.91,2.83,0,3Z" transform="translate(-30.19 -16.46)"/><path class="cls-2" d="M156.25,105.52a31,31,0,0,0,18.48,9c1.92.23,1.9-2.77,0-3a27.7,27.7,0,0,1-16.36-8.09,1.5,1.5,0,0,0-2.12,2.12Z" transform="translate(-30.19 -16.46)"/></svg>